<svg xmlns="http://www.w3.org/2000/svg" viewBox="0 0 1196 672" width="1196" height="672">
<path fill="#ffffff" fill-rule="evenodd" d="M130.0,239.5 L127.5,237.0 L127.5,234.0 L124.5,232.0 L129.5,205.0 L142.5,166.0 L161.5,119.0 L157.0,118.5 L141.0,124.5 L138.0,124.5 L96.0,141.5 L92.0,140.5 L89.5,138.0 L93.5,133.0 L109.0,123.5 L128.0,114.5 L183.0,96.5 L244.0,83.5 L257.0,83.5 L260.5,86.0 L260.0,87.5 L264.0,88.5 L265.5,90.0 L265.0,92.5 L260.0,91.5 L250.0,93.5 L246.5,95.0 L249.0,96.5 L212.0,104.5 L211.5,111.0 L201.5,133.0 L194.5,153.0 L205.0,143.5 L212.0,139.5 L218.0,139.5 L222.5,144.0 L222.5,150.0 L209.5,184.0 L209.5,187.0 L211.0,188.5 L225.5,173.0 L229.5,157.0 L240.5,140.0 L249.0,132.5 L255.0,129.5 L265.0,128.5 L269.5,131.0 L272.5,136.0 L272.5,143.0 L269.5,150.0 L257.0,163.5 L251.0,167.5 L240.0,169.5 L237.5,172.0 L237.5,177.0 L242.0,182.5 L245.0,183.5 L249.0,182.5 L265.0,173.5 L283.0,157.5 L282.5,162.0 L273.5,172.0 L274.5,174.0 L262.0,185.5 L250.0,192.5 L246.0,193.5 L235.0,192.5 L231.0,190.5 L227.5,186.0 L227.5,184.0 L226.0,183.5 L212.0,198.5 L207.0,200.5 L201.0,199.5 L197.5,196.0 L196.5,188.0 L201.5,170.0 L207.5,156.0 L206.0,155.5 L189.5,176.0 L175.5,204.0 L172.0,207.5 L167.0,205.5 L164.5,203.0 L164.5,199.0 L170.5,179.0 L188.5,131.0 L198.5,109.0 L194.0,108.5 L181.0,112.5 L153.5,180.0 L146.5,202.0 L142.5,210.0 L140.5,219.0 L136.5,223.0 L130.0,239.5Z M329.0,183.5 L329.0,169.5 L326.5,178.0 L325.5,178.0 L326.5,171.0 L325.5,158.0 L327.5,152.0 L328.5,134.0 L323.5,134.0 L325.0,131.5 L327.0,132.5 L329.5,131.0 L311.5,130.0 L322.0,128.5 L323.5,127.0 L319.5,126.0 L324.5,124.0 L320.0,121.5 L388.0,110.5 L465.0,101.5 L467.5,102.0 L466.0,103.5 L460.0,103.5 L454.5,106.0 L471.0,105.5 L472.0,104.5 L473.5,106.0 L470.0,106.5 L470.0,107.5 L482.0,105.5 L488.5,106.0 L469.0,109.5 L466.5,112.0 L470.0,111.5 L470.5,113.0 L465.0,114.5 L465.0,115.5 L484.0,113.5 L492.5,114.0 L489.0,115.5 L473.0,115.5 L475.5,118.0 L470.0,120.5 L421.0,126.5 L411.0,126.5 L349.0,136.5 L342.5,172.0 L340.5,170.0 L343.5,154.0 L343.0,149.5 L341.5,151.0 L340.5,159.0 L338.0,163.5 L338.5,159.0 L336.5,158.0 L336.5,163.0 L332.5,168.0 L330.5,181.0 L329.0,183.5Z M892.0,352.5 L890.5,352.0 L890.5,350.0 L892.5,336.0 L887.5,339.0 L888.5,326.0 L890.5,322.0 L890.0,318.5 L887.5,323.0 L887.5,327.0 L883.5,340.0 L882.0,341.5 L880.5,340.0 L880.5,336.0 L881.5,327.0 L883.5,322.0 L883.5,315.0 L888.5,297.0 L888.5,293.0 L887.0,295.5 L886.5,292.0 L894.5,258.0 L897.5,251.0 L897.5,246.0 L884.5,222.0 L884.5,219.0 L879.5,211.0 L864.5,177.0 L865.5,173.0 L857.5,155.0 L854.5,142.0 L857.0,141.5 L859.0,138.5 L864.0,146.5 L865.5,146.0 L865.0,143.5 L869.0,142.5 L871.5,149.0 L874.0,151.5 L874.5,149.0 L871.5,144.0 L871.5,140.0 L874.5,137.0 L875.0,133.5 L879.0,138.5 L882.5,138.0 L887.0,145.5 L887.5,143.0 L883.5,134.0 L885.0,132.5 L888.0,137.5 L890.0,136.5 L894.5,145.0 L898.5,149.0 L905.5,163.0 L905.5,167.0 L910.5,174.0 L923.0,202.5 L926.5,199.0 L965.5,140.0 L988.0,111.5 L992.0,111.5 L995.0,108.5 L999.5,109.0 L993.0,121.5 L999.0,115.5 L1002.5,115.0 L1002.0,118.5 L1009.0,111.5 L1013.0,109.5 L1015.0,109.5 L1018.0,113.5 L1021.0,112.5 L1018.5,116.0 L1019.5,119.0 L1014.0,126.5 L1024.0,117.5 L1027.0,118.5 L1033.0,113.5 L1036.5,117.0 L1031.5,122.0 L1027.5,131.0 L1031.5,130.0 L982.5,191.0 L940.5,247.0 L933.5,272.0 L930.5,278.0 L927.5,292.0 L924.5,298.0 L922.5,308.0 L918.5,315.0 L918.5,320.0 L912.5,334.0 L912.5,338.0 L910.5,338.0 L912.0,327.5 L909.0,331.5 L906.5,332.0 L905.5,336.0 L903.5,336.0 L906.5,322.0 L906.0,317.5 L902.5,331.0 L900.5,331.0 L901.5,327.0 L900.0,325.5 L898.5,328.0 L892.0,352.5Z M452.0,127.5 L443.5,126.0 L471.5,123.0 L471.0,124.5 L452.0,127.5Z M244.5,160.0 L252.0,155.5 L259.5,148.0 L262.5,143.0 L262.5,139.0 L261.0,137.5 L257.0,139.5 L246.5,151.0 L242.5,158.0 L243.0,160.5 L244.5,160.0Z M699.0,367.5 L698.5,362.0 L700.5,357.0 L700.5,349.0 L699.5,349.0 L699.5,352.0 L698.0,352.5 L696.5,348.0 L697.0,339.5 L694.5,344.0 L694.5,347.0 L692.5,348.0 L689.5,358.0 L687.5,358.0 L689.5,354.0 L690.5,340.0 L694.5,325.0 L694.0,320.5 L687.0,340.5 L685.5,340.0 L686.5,328.0 L684.5,328.0 L679.0,352.5 L677.5,352.0 L679.5,344.0 L677.5,342.0 L677.5,339.0 L682.5,318.0 L682.5,315.0 L680.5,314.0 L682.5,307.0 L682.5,301.0 L708.5,196.0 L689.0,199.5 L688.0,197.5 L696.5,194.0 L692.0,193.5 L692.0,190.5 L687.5,190.0 L693.5,187.0 L686.0,186.5 L678.0,188.5 L678.0,186.5 L686.0,183.5 L686.5,182.0 L677.5,182.0 L693.0,174.5 L698.0,173.5 L698.0,172.5 L693.5,172.0 L696.0,168.5 L707.0,165.5 L709.5,163.0 L687.5,167.0 L688.0,165.5 L697.0,161.5 L695.5,160.0 L697.0,158.5 L720.0,150.5 L746.0,144.5 L764.0,141.5 L794.0,140.5 L818.0,144.5 L831.0,150.5 L838.5,156.0 L841.5,162.0 L847.5,167.0 L852.5,180.0 L852.5,197.0 L848.5,209.0 L839.5,225.0 L820.0,245.5 L806.0,255.5 L803.0,255.5 L794.0,262.5 L774.0,271.5 L773.5,273.0 L819.0,309.5 L820.0,311.5 L816.5,311.0 L821.0,315.5 L824.0,317.5 L823.5,315.0 L825.0,314.5 L833.0,320.5 L836.0,324.5 L827.5,320.0 L837.0,329.5 L857.5,346.0 L856.0,346.5 L838.0,333.5 L836.0,333.5 L841.5,339.0 L839.0,341.5 L833.5,341.0 L839.5,346.0 L837.0,346.5 L820.0,335.5 L818.0,336.5 L816.0,335.5 L808.0,329.5 L805.5,330.0 L817.5,339.0 L817.0,343.5 L802.0,336.5 L794.0,330.5 L793.5,332.0 L795.0,333.5 L809.5,344.0 L806.0,344.5 L797.0,337.5 L793.0,339.5 L784.0,331.5 L779.0,330.5 L758.0,314.5 L729.0,289.5 L727.5,291.0 L720.5,323.0 L718.5,326.0 L711.5,353.0 L710.5,353.0 L710.5,347.0 L713.5,337.0 L712.0,335.5 L710.5,337.0 L708.5,348.0 L702.5,354.0 L701.5,362.0 L699.0,367.5Z M739.5,249.0 L771.0,233.5 L792.0,219.5 L808.5,203.0 L811.5,197.0 L811.5,191.0 L803.0,184.5 L785.0,181.5 L772.0,182.5 L754.0,186.5 L737.5,248.0 L738.0,249.5 L739.5,249.0Z M350.0,425.5 L349.5,418.0 L352.5,401.0 L350.0,400.5 L349.5,398.0 L353.5,377.0 L352.0,376.5 L350.5,379.0 L347.0,396.5 L345.5,395.0 L346.5,392.0 L345.5,390.0 L346.5,388.0 L345.5,387.0 L346.0,374.5 L343.5,377.0 L342.5,387.0 L338.0,401.5 L336.5,391.0 L341.5,369.0 L341.5,359.0 L344.5,344.0 L343.5,340.0 L363.5,251.0 L361.0,250.5 L341.0,256.5 L338.0,256.5 L339.5,255.0 L337.0,254.5 L311.0,261.5 L313.0,258.5 L318.5,256.0 L313.5,254.0 L314.5,251.0 L324.0,247.5 L326.5,245.0 L300.5,250.0 L309.5,246.0 L309.0,244.5 L306.5,244.0 L307.5,243.0 L307.0,238.5 L320.5,233.0 L314.0,232.5 L314.0,231.5 L329.5,225.0 L327.0,223.5 L319.0,226.5 L312.5,226.0 L318.5,222.0 L317.0,220.5 L322.0,218.5 L352.0,210.5 L357.0,207.5 L384.0,201.5 L394.0,197.5 L436.0,190.5 L438.0,191.5 L449.0,189.5 L459.0,190.5 L469.0,188.5 L480.0,189.5 L480.0,190.5 L472.0,192.5 L465.0,192.5 L464.5,194.0 L474.0,194.5 L475.5,197.0 L472.5,198.0 L477.0,202.5 L481.0,201.5 L484.0,201.5 L484.0,202.5 L473.0,206.5 L462.0,208.5 L461.0,210.5 L471.5,210.0 L464.0,211.5 L458.0,214.5 L454.0,214.5 L452.5,216.0 L471.5,216.0 L468.0,216.5 L465.0,220.5 L455.0,221.5 L453.5,223.0 L455.0,224.5 L464.0,223.5 L462.0,227.5 L454.0,228.5 L450.0,232.5 L444.0,233.5 L440.0,232.5 L435.0,235.5 L422.0,237.5 L412.5,241.0 L393.5,317.0 L389.5,340.0 L386.5,347.0 L382.5,366.0 L380.5,369.0 L379.5,378.0 L376.5,381.0 L375.5,389.0 L372.5,394.0 L372.0,398.5 L372.5,385.0 L376.0,370.5 L373.5,372.0 L368.5,395.0 L364.0,401.5 L362.0,400.5 L361.0,401.5 L359.5,400.0 L360.5,396.0 L360.5,391.0 L359.5,391.0 L350.0,425.5Z M92.0,491.5 L88.5,491.0 L125.5,474.0 L123.0,473.5 L115.0,477.5 L110.0,477.5 L96.0,483.5 L90.0,482.5 L87.0,484.5 L87.0,482.5 L91.0,481.5 L94.5,478.0 L92.0,477.5 L65.0,488.5 L58.0,489.5 L55.0,491.5 L52.5,491.0 L75.0,481.5 L83.0,477.5 L82.5,476.0 L84.0,474.5 L96.0,469.5 L94.0,468.5 L84.0,471.5 L86.5,468.0 L83.0,467.5 L71.0,472.5 L69.5,472.0 L110.0,453.5 L111.5,452.0 L110.0,450.5 L97.5,454.0 L100.0,450.5 L118.0,442.5 L118.5,441.0 L85.0,453.5 L82.0,453.5 L82.0,452.5 L99.0,445.5 L99.5,443.0 L103.0,440.5 L110.0,439.5 L116.0,435.5 L138.0,427.5 L146.0,423.5 L148.0,420.5 L164.0,415.5 L169.0,410.5 L179.0,407.5 L204.0,394.5 L216.0,386.5 L221.0,385.5 L229.0,380.5 L236.5,373.0 L239.5,368.0 L239.5,365.0 L236.0,361.5 L221.0,355.5 L183.0,347.5 L152.0,344.5 L146.0,340.5 L139.0,340.5 L134.0,338.5 L132.0,333.5 L130.0,333.5 L129.0,335.5 L126.0,333.5 L117.5,324.0 L118.5,319.0 L115.5,316.0 L114.5,309.0 L114.5,305.0 L116.5,303.0 L117.5,297.0 L123.5,286.0 L129.5,278.0 L142.0,265.5 L144.0,267.5 L150.0,262.5 L151.5,261.0 L149.5,260.0 L154.0,255.5 L193.0,232.5 L206.0,227.5 L214.0,226.5 L227.0,220.5 L248.0,215.5 L255.0,214.5 L284.0,215.5 L289.5,221.0 L279.0,221.5 L278.5,223.0 L285.0,224.5 L283.5,226.0 L285.0,227.5 L290.0,227.5 L294.5,231.0 L293.5,232.0 L294.5,235.0 L290.0,239.5 L284.5,240.0 L287.5,243.0 L286.5,244.0 L290.5,247.0 L289.5,250.0 L291.5,251.0 L291.5,253.0 L290.0,254.5 L284.0,255.5 L283.0,254.5 L267.0,254.5 L246.0,259.5 L242.0,258.5 L235.0,260.5 L232.5,262.0 L239.5,262.0 L203.0,277.5 L184.0,289.5 L175.5,298.0 L184.0,303.5 L224.0,311.5 L242.0,316.5 L248.0,316.5 L259.0,320.5 L266.0,321.5 L272.0,325.5 L277.0,325.5 L281.0,327.5 L286.0,333.5 L291.0,335.5 L295.5,341.0 L293.5,343.0 L297.5,349.0 L298.5,358.0 L297.5,366.0 L293.5,376.0 L287.5,385.0 L273.0,400.5 L271.0,401.5 L269.0,399.5 L263.5,405.0 L265.5,406.0 L262.0,409.5 L259.0,411.5 L257.5,411.0 L259.0,408.5 L256.0,409.5 L241.0,420.5 L207.0,439.5 L203.0,443.5 L196.0,446.5 L192.0,451.5 L146.0,473.5 L143.5,473.0 L146.5,471.0 L143.0,470.5 L123.0,479.5 L112.0,482.5 L102.0,487.5 L96.0,488.5 L92.0,491.5Z M701.5,236.0 L704.5,225.0 L704.0,220.5 L700.5,233.0 L700.5,236.0 L701.5,236.0Z M359.5,287.0 L361.5,274.0 L363.5,270.0 L363.0,267.5 L361.5,268.0 L358.5,282.0 L358.5,287.0 L359.5,287.0Z M791.0,586.5 L780.5,586.0 L899.0,570.5 L938.0,567.5 L942.0,566.5 L943.5,564.0 L936.0,564.5 L936.0,563.5 L965.0,559.5 L969.5,544.0 L969.5,538.0 L974.5,518.0 L975.5,518.0 L975.5,521.0 L973.0,534.5 L974.5,534.0 L975.5,530.0 L978.5,528.0 L980.0,519.5 L981.0,525.5 L983.0,521.5 L985.0,520.5 L986.5,522.0 L985.5,529.0 L987.5,529.0 L989.5,518.0 L993.0,510.5 L990.0,534.5 L991.5,534.0 L995.5,520.0 L997.5,520.0 L995.5,525.0 L995.5,532.0 L988.5,565.0 L988.5,570.0 L987.0,571.5 L952.0,575.5 L919.0,576.5 L918.0,577.5 L890.0,578.5 L865.0,581.5 L802.0,584.5 L791.0,586.5Z"/>
<path fill="#e8141b" fill-rule="evenodd" d="M824.0,527.5 L822.0,527.5 L819.5,525.0 L821.5,523.0 L818.0,519.5 L814.0,518.5 L810.5,515.0 L817.5,506.0 L814.5,505.0 L813.5,501.0 L820.5,495.0 L839.5,472.0 L899.5,408.0 L911.5,397.0 L911.0,395.5 L909.0,395.5 L871.0,404.5 L864.0,407.5 L856.0,407.5 L852.0,409.5 L844.0,410.5 L843.5,409.0 L846.5,403.0 L843.0,403.5 L840.5,402.0 L840.5,400.0 L842.5,399.0 L842.5,395.0 L846.5,391.0 L844.5,388.0 L847.5,385.0 L845.5,384.0 L859.0,377.5 L871.0,375.5 L890.0,369.5 L895.0,369.5 L918.0,363.5 L932.0,361.5 L953.0,361.5 L954.5,363.0 L953.5,366.0 L955.0,367.5 L964.5,372.0 L964.5,375.0 L958.5,380.0 L959.5,382.0 L958.5,385.0 L960.5,387.0 L933.5,411.0 L932.5,414.0 L869.5,478.0 L865.5,483.0 L866.0,484.5 L915.0,473.5 L935.0,472.5 L946.0,470.5 L955.0,471.5 L956.0,470.5 L980.0,469.5 L980.0,471.5 L968.0,472.5 L965.5,474.0 L975.0,473.5 L978.0,474.5 L979.5,476.0 L979.0,477.5 L982.0,478.5 L998.0,478.5 L1000.5,477.0 L1005.5,451.0 L1005.5,444.0 L1007.5,438.0 L1007.0,432.5 L1005.5,436.0 L1005.5,442.0 L1003.5,446.0 L1003.5,452.0 L1001.5,456.0 L1001.5,461.0 L999.0,467.5 L999.5,454.0 L1009.5,408.0 L1013.5,381.0 L1015.5,376.0 L1015.5,368.0 L1019.5,352.0 L1019.5,345.0 L1023.5,332.0 L1023.5,326.0 L1025.5,322.0 L1025.5,316.0 L1033.5,279.0 L1033.5,273.0 L1039.5,241.0 L1037.5,239.0 L1039.5,218.0 L1041.5,213.0 L1044.5,192.0 L1046.5,189.0 L1047.5,183.0 L1049.5,183.0 L1047.5,189.0 L1047.5,197.0 L1052.0,190.5 L1052.0,201.5 L1057.5,184.0 L1065.5,143.0 L1066.0,129.5 L1064.0,136.5 L1063.5,133.0 L1067.5,114.0 L1067.5,108.0 L1069.5,103.0 L1069.5,91.0 L1073.5,72.0 L1037.0,72.5 L1030.0,71.5 L1001.0,74.5 L926.0,77.5 L915.0,79.5 L887.0,79.5 L881.0,81.5 L871.0,81.5 L861.0,83.5 L846.0,83.5 L835.0,85.5 L799.0,87.5 L789.0,89.5 L777.0,89.5 L767.0,91.5 L755.0,91.5 L747.0,93.5 L735.0,93.5 L727.0,95.5 L716.0,95.5 L707.0,97.5 L676.0,99.5 L671.0,101.5 L644.0,103.5 L637.0,105.5 L627.0,105.5 L619.0,107.5 L593.0,109.5 L568.0,113.5 L558.0,113.5 L551.0,115.5 L526.0,117.5 L519.0,119.5 L509.0,119.5 L478.0,124.5 L473.0,124.5 L471.5,123.0 L474.0,121.5 L499.0,119.5 L501.5,118.0 L478.0,117.5 L476.0,118.5 L472.5,116.0 L489.0,115.5 L492.0,113.5 L465.0,115.5 L465.0,114.5 L470.5,113.0 L470.0,111.5 L466.5,112.0 L469.0,109.5 L488.5,106.0 L482.0,105.5 L475.0,107.5 L470.0,107.5 L470.0,106.5 L473.0,106.5 L472.5,105.0 L474.0,103.5 L481.0,102.5 L498.0,101.5 L524.0,97.5 L535.0,97.5 L555.0,93.5 L582.0,91.5 L608.0,87.5 L624.0,87.5 L625.0,86.5 L639.0,87.5 L647.0,85.5 L659.0,85.5 L660.0,84.5 L665.0,85.5 L698.0,80.5 L779.0,75.5 L792.0,73.5 L811.0,73.5 L824.0,71.5 L842.0,71.5 L854.0,69.5 L903.0,68.5 L913.0,66.5 L938.0,66.5 L945.0,64.5 L958.0,64.5 L970.0,62.5 L1040.0,59.5 L1056.0,57.5 L1093.5,57.0 L1093.5,63.0 L1089.5,76.0 L1087.5,93.0 L1085.5,97.0 L1085.5,103.0 L1083.5,107.0 L1083.5,113.0 L1081.5,118.0 L1079.5,133.0 L1077.5,137.0 L1075.5,152.0 L1071.5,166.0 L1067.5,192.0 L1065.5,196.0 L1065.5,200.0 L1062.5,204.0 L1063.5,214.0 L1060.5,223.0 L1057.5,244.0 L1049.5,278.0 L1047.5,294.0 L1043.5,309.0 L1043.5,315.0 L1029.5,378.0 L1027.5,393.0 L1024.0,402.5 L1025.0,388.5 L1023.5,390.0 L1021.5,406.0 L1019.5,410.0 L1018.5,422.0 L1016.5,422.0 L1017.5,421.0 L1017.0,415.5 L1013.5,433.0 L1010.5,441.0 L1005.5,469.0 L1003.5,473.0 L1004.5,479.0 L1001.0,481.5 L991.0,480.5 L974.0,482.5 L968.0,486.5 L955.0,487.5 L954.5,489.0 L957.5,490.0 L957.0,491.5 L942.5,494.0 L950.0,494.5 L963.0,492.5 L969.0,492.5 L969.0,493.5 L950.0,496.5 L946.0,498.5 L935.0,498.5 L929.0,501.5 L887.0,509.5 L858.0,517.5 L849.0,521.5 L842.0,523.5 L834.0,523.5 L824.0,527.5Z M463.0,397.5 L458.0,397.5 L455.5,395.0 L455.5,391.0 L476.5,335.0 L475.5,330.0 L467.5,315.0 L467.5,311.0 L464.5,304.0 L463.5,298.0 L464.5,275.0 L467.5,261.0 L475.5,240.0 L491.5,216.0 L509.0,198.5 L512.0,197.5 L518.0,191.5 L542.0,179.5 L559.0,175.5 L584.0,174.5 L604.0,177.5 L619.0,182.5 L631.0,188.5 L641.0,195.5 L653.5,208.0 L660.5,218.0 L667.5,232.0 L671.5,246.0 L673.5,265.0 L671.5,279.0 L669.5,283.0 L669.5,288.0 L667.5,291.0 L666.5,298.0 L655.5,320.0 L649.5,326.0 L649.5,328.0 L645.5,333.0 L622.0,354.5 L618.0,355.5 L607.0,363.5 L589.0,371.5 L585.0,371.5 L572.0,375.5 L548.0,376.5 L547.0,375.5 L537.0,375.5 L518.0,370.5 L476.0,391.5 L473.0,391.5 L463.0,397.5Z M535.5,338.0 L578.0,313.5 L581.0,310.5 L594.0,303.5 L601.0,297.5 L607.0,295.5 L616.0,287.5 L622.0,285.5 L632.5,276.0 L633.5,273.0 L631.5,268.0 L609.0,255.5 L607.0,255.5 L598.0,249.5 L596.0,249.5 L551.0,223.5 L541.0,219.5 L537.0,220.5 L531.5,227.0 L529.5,288.0 L528.5,289.0 L528.5,308.0 L527.5,309.0 L527.5,335.0 L530.0,337.5 L535.5,338.0Z M719.0,533.5 L715.5,533.0 L717.5,531.0 L718.0,525.5 L705.5,525.0 L708.5,523.0 L710.5,516.0 L703.5,516.0 L714.5,508.0 L715.5,504.0 L714.5,494.0 L717.5,482.0 L717.5,476.0 L735.5,411.0 L722.0,411.5 L729.5,404.0 L724.0,403.5 L722.0,398.5 L714.5,399.0 L717.0,396.5 L723.5,394.0 L718.5,393.0 L722.0,391.5 L725.0,387.5 L742.0,381.5 L760.0,378.5 L778.0,377.5 L793.0,379.5 L803.0,382.5 L813.0,387.5 L824.5,398.0 L831.5,408.0 L831.5,413.0 L834.5,420.0 L833.5,441.0 L827.5,457.0 L822.5,466.0 L807.5,485.0 L784.0,505.5 L747.0,525.5 L733.0,530.5 L728.0,529.5 L719.0,533.5Z M603.0,542.5 L603.5,540.0 L597.0,534.5 L594.5,538.0 L594.5,530.0 L592.0,532.5 L591.0,527.5 L589.5,532.0 L588.0,533.5 L586.5,533.0 L587.5,520.0 L589.5,516.0 L588.5,513.0 L589.5,504.0 L591.5,500.0 L595.5,480.0 L609.5,429.0 L609.0,425.5 L595.0,428.5 L596.0,426.5 L600.5,424.0 L599.0,419.5 L587.5,421.0 L594.0,417.5 L595.5,416.0 L593.5,415.0 L600.0,411.5 L600.5,409.0 L603.5,407.0 L594.5,407.0 L602.0,401.5 L611.0,397.5 L632.0,391.5 L649.0,388.5 L673.0,387.5 L685.0,389.5 L696.0,393.5 L705.5,401.0 L712.5,415.0 L712.5,428.0 L709.5,436.0 L701.5,449.0 L693.0,457.5 L688.0,461.5 L684.0,462.5 L678.0,468.5 L674.0,469.5 L666.0,475.5 L657.0,479.5 L656.5,481.0 L683.5,508.0 L685.5,512.0 L698.5,524.0 L697.5,526.0 L699.5,529.0 L707.5,537.0 L700.0,532.5 L699.0,534.5 L696.5,535.0 L697.0,537.5 L686.0,529.5 L683.0,529.5 L683.0,532.5 L676.0,531.5 L676.0,534.5 L667.0,530.5 L652.0,517.5 L648.0,515.5 L624.0,492.5 L621.5,497.0 L613.5,530.0 L611.0,534.5 L608.5,534.0 L603.0,542.5Z M473.0,561.5 L472.5,557.0 L469.5,555.0 L469.0,549.5 L464.0,556.5 L463.5,554.0 L465.5,550.0 L462.5,549.0 L462.0,545.5 L459.5,548.0 L459.5,550.0 L457.5,550.0 L461.5,534.0 L466.5,525.0 L465.5,522.0 L468.5,519.0 L466.0,516.5 L461.5,517.0 L464.5,514.0 L464.5,511.0 L468.5,508.0 L466.5,507.0 L467.5,505.0 L465.5,503.0 L468.0,500.5 L480.5,495.0 L492.5,469.0 L529.5,402.0 L534.0,402.5 L538.0,399.5 L541.0,405.5 L548.0,399.5 L552.0,401.5 L557.0,399.5 L565.5,413.0 L568.5,460.0 L569.5,461.0 L569.5,476.0 L585.0,475.5 L583.0,478.5 L585.0,478.5 L587.0,481.5 L592.5,482.0 L591.0,483.5 L585.0,484.5 L583.0,487.5 L579.5,489.0 L581.5,491.0 L578.0,492.5 L574.0,497.5 L571.5,498.0 L571.5,513.0 L572.5,514.0 L571.5,522.0 L573.5,531.0 L572.5,538.0 L570.0,538.5 L566.5,543.0 L566.0,548.5 L564.5,548.0 L563.0,543.5 L560.0,541.5 L556.5,542.0 L555.0,535.5 L552.0,539.5 L550.0,534.5 L549.5,543.0 L546.5,541.0 L542.5,517.0 L542.5,507.0 L541.0,505.5 L533.0,509.5 L502.0,517.5 L499.5,520.0 L487.5,545.0 L482.0,552.5 L480.0,551.5 L476.5,555.0 L473.0,561.5Z M745.5,496.0 L757.0,490.5 L778.0,475.5 L790.5,463.0 L799.5,451.0 L804.5,441.0 L806.5,428.0 L802.5,419.0 L794.0,411.5 L781.0,407.5 L768.0,407.5 L766.5,409.0 L763.5,421.0 L761.5,424.0 L755.5,450.0 L751.5,460.0 L745.5,488.0 L742.5,493.0 L743.0,496.5 L745.5,496.0Z M391.0,569.5 L375.0,568.5 L371.0,567.5 L369.0,564.5 L366.0,565.5 L359.0,562.5 L351.5,555.0 L345.5,546.0 L340.5,527.0 L340.5,511.0 L347.5,485.0 L359.5,462.0 L370.5,447.0 L390.0,427.5 L402.0,419.5 L414.0,415.5 L419.0,415.5 L426.5,418.0 L424.0,421.5 L433.0,422.5 L434.0,420.5 L436.0,420.5 L442.0,424.5 L443.5,423.0 L442.5,421.0 L444.0,420.5 L452.0,424.5 L453.0,423.5 L457.5,427.0 L465.5,439.0 L468.5,447.0 L470.5,459.0 L469.5,479.0 L461.5,504.0 L445.5,531.0 L428.0,549.5 L411.0,561.5 L391.0,569.5Z M632.5,462.0 L648.0,455.5 L668.0,443.5 L680.5,432.0 L683.5,427.0 L683.5,422.0 L681.0,419.5 L673.0,416.5 L655.0,416.5 L644.0,418.5 L641.5,423.0 L637.5,440.0 L633.5,450.0 L631.5,458.0 L631.5,462.0 L632.5,462.0Z M199.0,617.5 L195.5,617.0 L208.5,610.0 L203.0,610.5 L202.0,607.5 L198.0,605.5 L183.0,611.5 L178.5,611.0 L191.0,605.5 L191.5,602.0 L187.5,601.0 L199.0,596.5 L202.5,592.0 L200.0,591.5 L191.0,595.5 L190.0,593.5 L201.0,589.5 L213.5,582.0 L213.5,577.0 L212.0,578.5 L209.0,573.5 L207.5,577.0 L205.5,578.0 L207.5,572.0 L206.5,565.0 L209.5,553.0 L209.5,546.0 L215.5,526.0 L215.5,521.0 L219.5,511.0 L219.5,506.0 L228.5,475.0 L228.0,472.5 L225.0,472.5 L212.0,477.5 L211.5,476.0 L217.5,471.0 L215.0,467.5 L212.0,469.5 L206.0,469.5 L203.0,471.5 L199.5,471.0 L211.0,464.5 L210.0,462.5 L217.5,458.0 L216.5,456.0 L219.0,453.5 L216.0,453.5 L213.0,455.5 L210.5,455.0 L215.0,452.5 L218.0,447.5 L248.0,435.5 L267.0,431.5 L271.0,429.5 L278.0,429.5 L286.0,427.5 L306.0,428.5 L318.0,431.5 L323.0,434.5 L326.0,438.5 L331.5,442.0 L334.5,448.0 L335.5,451.0 L334.5,466.0 L329.5,475.0 L322.0,483.5 L318.0,484.5 L311.0,491.5 L307.0,492.5 L300.5,498.0 L302.0,499.5 L308.0,499.5 L322.0,504.5 L331.5,514.0 L332.5,521.0 L334.5,524.0 L334.5,531.0 L327.5,546.0 L309.0,564.5 L300.0,568.5 L297.0,573.5 L284.0,581.5 L242.0,602.5 L231.0,606.5 L224.0,607.5 L213.0,613.5 L208.0,613.5 L199.0,617.5Z M389.5,541.0 L399.0,537.5 L416.5,521.0 L427.5,506.0 L431.5,496.0 L437.5,487.0 L437.5,480.0 L439.5,477.0 L440.5,471.0 L440.5,463.0 L437.5,452.0 L431.0,445.5 L425.0,444.5 L416.0,445.5 L403.0,455.5 L392.5,467.0 L377.5,493.0 L373.5,504.0 L371.5,515.0 L372.5,531.0 L375.5,537.0 L380.0,540.5 L389.5,541.0Z M517.5,487.0 L529.0,483.5 L538.0,482.5 L539.5,481.0 L538.0,444.5 L517.5,482.0 L516.5,485.0 L517.5,487.0Z M257.5,497.0 L267.0,492.5 L273.0,487.5 L280.0,484.5 L293.0,475.5 L304.5,465.0 L305.5,461.0 L303.0,458.5 L297.0,456.5 L285.0,456.5 L265.0,461.5 L263.5,463.0 L260.5,479.0 L255.5,493.0 L255.5,497.0 L257.5,497.0Z M237.5,573.0 L259.0,563.5 L264.0,559.5 L270.0,557.5 L288.0,546.5 L303.5,533.0 L304.5,531.0 L303.5,526.0 L295.0,522.5 L285.0,521.5 L267.0,523.5 L248.0,528.5 L239.5,561.0 L235.5,566.0 L234.5,573.0 L237.5,573.0Z M338.0,640.5 L336.5,640.0 L339.0,637.5 L345.5,635.0 L342.5,632.0 L350.0,628.5 L352.5,626.0 L351.5,625.0 L355.0,623.5 L356.0,621.5 L350.0,623.5 L348.0,623.5 L348.0,621.5 L345.0,621.5 L338.0,624.5 L325.0,625.5 L314.0,629.5 L310.5,629.0 L321.5,624.0 L318.5,623.0 L320.5,620.0 L318.0,618.5 L340.0,609.5 L344.0,609.5 L364.0,602.5 L400.0,593.5 L405.0,593.5 L409.0,591.5 L414.0,591.5 L418.0,589.5 L423.0,589.5 L458.0,581.5 L476.0,579.5 L480.0,577.5 L550.0,567.5 L556.0,565.5 L579.0,563.5 L584.0,561.5 L593.0,561.5 L602.0,559.5 L660.0,553.5 L700.0,551.5 L709.0,549.5 L748.0,549.5 L756.0,547.5 L780.0,547.5 L781.0,546.5 L803.0,547.5 L812.0,545.5 L884.5,546.0 L880.0,547.5 L860.0,547.5 L859.0,548.5 L836.0,549.5 L828.0,552.5 L783.0,554.5 L775.0,556.5 L770.0,555.5 L762.0,558.5 L759.0,557.5 L754.5,559.0 L767.0,559.5 L767.0,561.5 L752.0,561.5 L746.0,563.5 L723.0,564.5 L697.0,568.5 L691.0,567.5 L687.0,569.5 L654.0,571.5 L650.0,573.5 L614.0,577.5 L583.0,583.5 L567.0,584.5 L558.0,587.5 L544.0,588.5 L535.0,591.5 L489.0,599.5 L428.0,613.5 L387.0,625.5 L383.0,625.5 L338.0,640.5Z M818.5,551.0 L792.5,551.0 L818.5,551.0Z"/>
</svg>
